<svg width="132" height="48" viewBox="0 0 132 48" fill="none" xmlns="http://www.w3.org/2000/svg">
<g clip-path="url(#clip0_39_2093)">
<path d="M0 17.758L5.89096 27.6194L8.24274 25.3951L1.83107 15.9135L0 17.758Z" fill="url(#paint0_linear_39_2093)"/>
<path d="M87.467 10.0077L87.2393 11.3076L90.0569 10.406L89.7057 8.81366L87.467 10.0077Z" fill="#0071B9"/>
<path d="M71.0501 1.12988L61.9839 11.4397L64.6223 10.6872L73.254 0L71.0501 1.12988Z" fill="url(#paint1_linear_39_2093)"/>
<path d="M119.551 15.2262L121.777 14.0501L121.141 19.5762L119.551 15.2262Z" fill="#1D2C5E"/>
<path d="M105.72 18.7698L107.698 19.1715L110.223 17.9562L108.032 17.1454L105.72 18.7698Z" fill="#1D2C5E"/>
<path d="M37.5217 12.9023L37.8382 19.3061L40.599 18.2L39.7726 11.7049L37.5217 12.9023Z" fill="url(#paint2_linear_39_2093)"/>
<path d="M107.861 10.9913L105.639 12.1804L105.72 18.7698L107.957 17.6331L108.659 14.4436L107.861 10.9913Z" fill="url(#paint3_linear_39_2093)"/>
<path d="M107.555 19.19L105.109 40.7432L109.02 39.9781L109.786 18.0276L107.555 19.19Z" fill="#312370"/>
<path d="M112.345 41.7764L112.415 44.6993L119.923 47.0722L122.158 45.8976L114.791 40.2375L107.328 39.5876L105.109 40.7432L112.345 41.7764Z" fill="#21386E"/>
<path d="M84.4912 36.6356L86.3365 35.65L87.5126 37.8049L89.2516 36.8571L89.5979 39.6979L100.514 41.6176L102.695 40.428L87.6429 31.3331L76.9651 33.1479L74.8822 35.1108L84.4912 36.6356Z" fill="#21386E"/>
<path d="M81.0152 10.1174L78.83 11.31L74.8822 35.1108L77.0934 33.9717L80.8829 20.6079L81.0152 10.1174Z" fill="url(#paint4_linear_39_2093)"/>
<path d="M63.5774 13.3074L61.8365 14.227L61.983 14.8026L66.1261 12.1926L64.3156 10.2661L61.9839 11.4397L63.5774 13.3074Z" fill="#1D2C5E"/>
<path d="M68.3373 41.4218L50.5361 32.6776L52.7708 31.0023L70.5524 40.2356L68.3373 41.4218Z" fill="#21386E"/>
<path d="M52.2089 8.87826L49.5113 13.9511L52.3618 13.0952L54.4187 7.68961L52.2089 8.87826Z" fill="#1D2C5E"/>
<path d="M27.7418 29.835L25.466 31.3841C25.466 31.3841 25.9489 33.9022 26.5715 35.6539C27.1976 37.4119 28.6877 38.824 28.6877 38.824C29.6449 39.7518 30.8181 40.427 32.127 40.8059C34.6443 41.5243 37.4855 41.056 39.9244 39.5138C40.5622 39.1135 41.4278 38.4728 41.9598 37.9671C39.5624 39.4098 27.7418 29.835 27.7418 29.835Z" fill="url(#paint5_linear_39_2093)"/>
<path d="M39.921 18.7839L41.998 41.5058L50.4842 40.2608L52.7546 39.0809L42.2233 17.4218L40.0567 18.1456L37.8382 19.3061L39.921 18.7839Z" fill="#1D2C5E"/>
<path d="M8.10705 26.6761L17.5886 48L26.5965 45.1185L28.796 43.6524L10.0993 24.2536L7.75975 25.6438L5.89096 27.6194L8.10705 26.6761Z" fill="url(#paint6_linear_39_2093)"/>
<path d="M102.076 36.7367L102.203 37.7835C102.979 37.697 103.794 37.5974 104.492 37.3512C105.305 37.0752 107.071 36.2951 107.743 35.7205C107.491 35.8113 103.352 36.8751 102.076 36.7367Z" fill="#1D2C5E"/>
<path d="M70.2066 31.2917L70.5446 32.9773C72.3678 32.7082 73.9329 32.0393 75.4716 31.1222C76.4371 30.5519 77.4971 29.6917 77.8317 29.4624C77.5955 29.612 70.2066 31.2917 70.2066 31.2917Z" fill="#1D2C5E"/>
<path d="M20.0536 45.9783L19.3497 44.4272L10.3599 24.5309L10.1752 24.1229L9.76667 24.3099L9.49383 24.4343L7.89348 25.2134C7.65737 24.8209 7.26549 24.1632 6.99313 23.7071L3.37459 17.6429L2.4282 16.0598L3.99376 15.0761C5.47459 14.1395 7.14694 13.2744 8.96625 12.504C12.5887 10.9738 16.2861 10.1646 19.6578 10.1646C20.7668 10.1646 21.8401 10.2535 22.8482 10.4274C24.5289 10.6173 26.0832 11.1643 27.3671 12.0124C29.2804 13.0733 30.7867 14.7191 31.6376 16.666C32.3361 18.2661 32.4723 20.1402 32.0285 22.0842L31.7679 23.2262L32.7246 22.5384C33.3692 22.0745 34.0697 21.6781 34.8065 21.3599C36.0801 20.826 37.3978 20.5535 38.7179 20.5535C39.9675 20.5535 41.1491 20.7988 42.2302 21.2812L42.9272 21.5911L42.8572 20.8367L42.554 17.5768L42.505 17.0599L41.9975 17.1906L40.4745 17.5821L40.2076 12.0313L51.3635 8.49695L51.2733 12.811L52.1134 13.0247L54.5499 8.39445L61.8473 14.8123L62.1515 15.081L62.4483 14.8041C63.4481 13.8724 64.6331 13.1248 65.9699 12.5822L66.5283 12.3558L66.1457 11.8929L64.83 10.3025L73.2079 0.726227L77.5955 7.21842L70.8792 10.7985L69.3876 11.5942L71.081 11.6296C74.265 11.6962 77.0846 13.032 79.0191 15.3904L79.7186 16.2458L80.1692 16.7952L79.4207 17.5831L78.9216 18.1087L77.2433 19.8837L76.9313 20.2135L77.2688 20.5156L78.8417 21.92L79.4501 22.4626L79.5804 21.662L80.1839 17.9571L80.3382 17.006L80.3431 17.0114L80.5018 16.0398L81.4027 10.5702H89.4451H89.8223L89.8859 10.2015L90.0432 9.26494H97.2856L99.0403 20.2533L99.1544 20.965L99.7423 20.5419C100.453 20.0299 101.238 19.6087 102.077 19.2906C103.193 18.8728 104.342 18.6596 105.49 18.6596C106.855 18.6596 108.181 18.9724 109.328 19.5636C109.359 19.5854 109.402 19.6136 109.46 19.6369L110.005 19.8536L110.069 19.2745L110.2 18.0771L110.243 17.6846L109.854 17.5987L108.385 17.2732L108.314 11.5451L119.51 13.989L120.351 18.1106L121.221 18.1276L122.088 14.5806L131.425 16.8321L121.884 45.3478L115.056 43.2216L115.008 40.5951L115.001 40.2186L114.624 40.1661L107.811 39.2126L108.197 35.7787L108.288 34.9617L107.551 35.3362C107.202 35.5126 106.864 35.6607 106.544 35.7773C105.43 36.195 104.29 36.4063 103.154 36.4063C102.825 36.4063 102.495 36.3884 102.173 36.3524L101.591 36.2878L101.683 36.861L102.162 39.881L92.2225 38.1425L91.7018 33.6608L91.5343 32.2244L90.8647 33.5083L89.7204 35.6967L87.6135 31.8397L86.9801 30.6812L86.7803 31.983L86.3213 34.9685L77.6097 33.6089L78.2853 29.5115L78.4396 28.572L77.6161 29.0602C76.1902 29.9078 74.5526 30.5456 72.6113 31.0105C71.9328 31.1747 71.224 31.2884 70.5025 31.3476L70.0939 31.3816V31.7882V39.5206L52.9378 31.1125L52.2932 30.7973L52.2937 31.5099L52.3054 38.7011L44.6349 39.8217L44.3125 36.3685L44.2253 35.4445L43.5567 36.0945C42.5432 37.0782 41.4013 37.8408 40.1635 38.3615C38.8972 38.8954 37.5908 39.1655 36.2814 39.1655C34.974 39.1655 33.7454 38.8944 32.6295 38.3645C30.5624 37.3784 29.0713 35.5893 28.4315 33.332C28.1268 32.2716 28.044 31.1519 28.1856 30.0026L28.337 28.7784L27.4366 29.6285C26.8018 30.226 26.1179 30.7968 25.4028 31.3209L25.1603 31.4982L25.2367 31.7872L27.8207 41.6229L28.2772 43.3683L26.5471 43.9138L21.6818 45.4585L20.0536 45.9783ZM22.2373 19.5742C21.9865 19.5742 21.7274 19.5971 21.4663 19.6437L21.1352 19.7069L20.6463 19.8001L20.7937 20.2723L20.8897 20.5793L22.2809 25.0935L22.42 25.5272L22.6268 26.1782L23.1411 25.7245L23.4825 25.4228C24.8311 24.221 25.3038 23.0008 25.0192 21.4619C24.8399 20.5385 24.1189 20.0785 23.7044 19.8861C23.2714 19.6792 22.7757 19.5742 22.2373 19.5742ZM59.5322 19.7224L58.6628 20.5618L56.3727 22.7686L55.874 23.249L56.5231 23.4977L58.9792 24.4377L59.7336 24.7257L59.5778 23.9398C59.375 22.9245 59.3221 21.9083 59.4171 20.9198L59.5322 19.7224ZM69.5331 17.2125C68.5832 17.2125 67.6643 17.6176 67.0113 18.3229C66.0208 19.3955 65.8283 20.9776 66.5327 22.259L66.7194 22.6064L67.0196 23.1616L67.4424 22.6923L67.7142 22.3936L71.0737 18.5901L71.3377 18.2889L71.7614 17.8061L71.1569 17.5841L70.7802 17.4461C70.3849 17.2926 69.9617 17.2125 69.5331 17.2125Z" fill="#FFCB05"/>
<path d="M74.6721 22.8463C74.6398 22.8745 74.6099 22.9104 74.5844 22.9474C74.6182 22.9167 74.651 22.89 74.6858 22.8619L74.6721 22.8463Z" fill="#7D7F68"/>
<path d="M77.5686 20.1858L79.2463 18.4108L78.6722 19.0151L78.6889 18.9388L78.1814 19.4698L76.5051 21.2394L78.0756 22.6403L78.3602 20.8955L79.142 21.5896L77.5686 20.1858Z" fill="#7D7F68"/>
<path d="M77.5686 20.1858L79.142 21.5897L79.7445 17.8853L79.2463 18.4108L77.5686 20.1858Z" fill="#7D7F68"/>
<path d="M65.9718 24.6252C66.1061 24.7597 65.9821 24.6631 66.1325 24.7651L67.1587 24.0476C67.0064 23.9407 66.8555 23.8261 66.7169 23.6979C65.2277 22.3523 65.6147 19.326 66.5807 17.6696C64.0379 19.7039 64.1702 22.8356 65.9718 24.6252Z" fill="#C7A008"/>
<path d="M78.3602 26.3195C76.6653 27.7097 74.7333 28.6162 72.1807 29.2277C71.6228 29.3545 71.0761 29.4468 70.5412 29.4935C66.4896 29.8884 63.0905 28.0435 61.8007 25.0512C61.6401 24.6888 61.5161 24.322 61.4226 23.9305C60.8259 21.4104 61.3354 19.1584 62.5909 17.3932C62.7153 17.2222 62.8461 17.0585 62.9832 16.8918C62.9191 16.9463 62.8534 16.9929 62.8 17.0439C62.3175 17.4699 61.8904 17.9367 61.5274 18.4468C60.2704 20.212 59.761 22.4655 60.363 24.9817C60.4551 25.3732 60.5771 25.7453 60.7343 26.0994C62.0246 29.0985 65.4247 30.9425 69.4728 30.5505C70.0121 30.499 70.5569 30.4106 71.1153 30.277C73.6708 29.6654 75.6014 28.7629 77.2962 27.3726C77.7102 27.035 78.1094 26.6668 78.4969 26.2641L78.4611 26.2301C78.4224 26.2632 78.3935 26.2918 78.3602 26.3195Z" fill="#C7A008"/>
<path d="M49.8072 18.7013L54.3339 12.3932L54.1502 12.2252L49.7827 18.3088L49.8072 18.7013Z" fill="#C7A008"/>
<path d="M79.7445 17.8853L79.142 21.5897L78.3602 20.8955L78.0756 22.6404L76.5051 21.2394L78.1814 19.4698L78.6889 18.9389L78.6722 19.0151L79.2463 18.4108L79.7445 17.8853Z" fill="#C7A008"/>
<path d="M74.1509 7.4948L75.7361 6.82056L72.8386 3.13315L71.8893 4.4481L74.1509 7.4948Z" fill="#C7A008"/>
<path d="M30.2655 16.63C22.9491 7.79161 9.76569 12.5423 5.02735 16.6767L5.21252 16.9939C6.30195 16.374 7.45065 15.8135 8.65912 15.3107C13.3656 13.3171 17.8527 12.7328 21.4501 13.357C22.7218 13.5017 24.0689 13.8758 25.2411 14.654C26.864 15.555 28.094 16.837 28.8131 18.4798C30.0892 21.3895 28.965 25.2586 25.9597 28.4977C29.7291 25.0677 32.3082 21.7859 30.2655 16.63Z" fill="#C7A008"/>
<path d="M45.1923 26.9272C45.158 26.7669 45.1237 26.6042 45.0713 26.4473C44.6593 24.9778 43.7742 23.8047 42.6137 23.0241C40.7356 21.7592 38.1139 21.4993 35.5011 22.5932C34.1265 23.1825 32.9313 24.0894 31.9864 25.1726C32.7128 24.5528 33.5431 24.0364 34.44 23.6517C37.047 22.5544 39.6687 22.8138 41.5532 24.0772C42.7136 24.8588 43.5915 26.0315 44.0122 27.4989C44.0588 27.6563 44.095 27.8215 44.1313 27.9871C44.243 28.5458 44.2949 29.1107 44.2733 29.6892C44.219 31.3807 43.5866 33.0837 42.5349 34.5381C42.3654 34.7684 42.1871 34.9831 42.0024 35.1958C42.601 34.6833 43.1354 34.1165 43.592 33.4816C44.6481 32.0364 45.279 30.33 45.3348 28.6283C45.3584 28.0605 45.3108 27.4863 45.1923 26.9272Z" fill="#C7A008"/>
<path d="M37.988 24.7699C37.9778 24.786 39.0496 23.7168 39.0373 23.7168C37.6966 23.6663 37.1298 24.92 37.0833 25.0187C37.3586 24.8865 37.6623 24.8006 37.988 24.7699Z" fill="#C7A008"/>
<path d="M40.5132 26.3025C40.5676 26.4827 40.596 26.662 40.596 26.8582C40.596 27.1351 40.5338 27.4008 40.4206 27.6456C40.6352 27.5344 42.1856 26.7887 41.5845 25.209C41.6169 25.2576 40.4745 26.2976 40.5132 26.3025Z" fill="#C7A008"/>
<path d="M34.4146 27.1817C34.4146 26.5318 35.5368 24.955 35.8866 24.4289C34.1143 25.5462 33.3511 27.054 33.3511 28.2417C33.3511 30.2765 35.1542 31.913 37.3101 31.913C38.33 31.913 40.1978 31.3782 41.4195 29.4177C40.7792 29.8354 39.1519 30.8351 38.2981 30.8351C36.1428 30.8347 34.4146 29.2278 34.4146 27.1817Z" fill="#C7A008"/>
<path d="M49.5863 29.0442L49.6142 37.2802L50.9324 37.355L50.6718 27.9662L49.5863 29.0442Z" fill="#C7A008"/>
<path d="M42.02 13.3638L42.047 14.0953L48.294 12.2509L48.757 20.1396L49.7994 18.6911L49.577 10.7747L42.02 13.3638Z" fill="#C7A008"/>
<path d="M60.9043 16.1885L55.0364 10.848L54.3339 12.3932L59.4984 17.2047L60.9043 16.1885Z" fill="#C7A008"/>
<path d="M60.0123 26.1407L53.123 23.882L52.1193 24.9331L58.9826 27.6568C59.761 29.1112 60.9406 30.3572 62.4258 31.268C63.8635 32.1399 65.5065 32.6621 67.2464 32.8277V36.1892L68.3104 36.7158L68.6469 31.6658L60.0123 26.1407Z" fill="#C7A008"/>
<path d="M71.0751 25.1906C72.7671 24.786 73.7429 23.9106 74.5829 22.9474C73.9525 23.4603 70.792 24.1433 70.261 24.3216L69.22 25.4209C69.6957 25.4626 70.4912 25.3354 71.0751 25.1906Z" fill="#C7A008"/>
<path d="M67.9979 13.5736C64.878 13.9787 63.2522 16.5761 62.9832 16.8923C64.1354 15.9271 65.5795 15.2106 67.2058 14.8288C71.0663 13.903 74.4703 15.0702 76.5742 17.6496L77.8762 16.5567C75.7924 14.022 71.8574 12.6507 67.9979 13.5736Z" fill="#C7A008"/>
<path d="M78.4616 26.2301C78.8378 25.9163 79.5065 25.5991 79.8621 25.2295L75.6846 21.528C75.3648 21.9073 75.0748 22.5325 74.6843 22.8614L78.4616 26.2301Z" fill="#C7A008"/>
<path d="M99.8995 36.1494C95.5168 32.5771 95.7789 24.9171 97.9303 22.4868L95.9993 10.4813L91.7758 11.0219L91.5877 12.0794H94.7835L96.4759 22.9721C94.3225 25.4102 93.2821 28.6764 94.0017 31.6668C94.5586 33.9775 95.99 35.8477 98.0503 36.9295C98.2575 37.0422 98.4716 37.1403 98.6905 37.2331L98.718 37.3929L99.9744 37.5896C99.9744 37.5892 100.105 36.2533 99.8995 36.1494Z" fill="#C7A008"/>
<path d="M83.0545 12.248L82.8727 13.306H87.6899L89.109 21.0203L90.1779 19.9497L89.0542 11.8059L83.0545 12.248Z" fill="#C7A008"/>
<path d="M91.3011 27.224L89.7458 31.2082L90.1309 32.2448L92.3553 26.1772L91.3011 27.224Z" fill="#C7A008"/>
<path d="M86.6823 24.7145L85.6115 25.775L84.4638 32.971L85.563 33.3873L86.6823 24.7145Z" fill="#C7A008"/>
<path d="M108.318 22.4159C108.948 22.8624 109.486 23.4273 109.891 24.0991C110.21 24.6145 110.451 25.1916 110.606 25.825C111.13 27.9881 110.503 30.3275 109.116 32.2045C108.976 32.3949 108.823 32.579 108.676 32.7597C109.239 32.2793 116.081 27.2745 109.396 20.7012C102.044 18.2977 99.2602 23.0547 99.0001 23.3564C99.777 22.7016 100.673 22.1599 101.644 21.7917C104.133 20.8571 106.581 21.1811 108.318 22.4159Z" fill="#C7A008"/>
<path d="M104.611 22.89C104.631 22.9362 105.667 21.8204 105.688 21.8204C104.379 21.8738 103.751 22.5 103.815 22.789C103.737 22.9012 103.673 23.0124 103.623 23.1353C103.903 22.9974 104.419 22.8915 104.611 22.89Z" fill="#C7A008"/>
<path d="M107.071 24.5207C107.118 24.6946 107.14 24.8768 107.137 25.0726C107.125 25.3232 107.059 25.553 106.963 25.7672C107.162 25.6783 108.748 25.1901 108.142 23.4598C108.158 23.5089 107.054 24.5217 107.071 24.5207Z" fill="#C7A008"/>
<path d="M103.597 30.0147C105.077 30.0774 106.714 29.1758 107.888 27.5825C104.876 28.195 101.71 23.2218 102.027 22.7351C100.889 23.5531 99.8824 25.1309 99.8363 26.2335C99.7579 28.2781 101.437 29.9292 103.597 30.0147Z" fill="#C7A008"/>
<path d="M120.101 42.9724L120.807 43.4406L129.422 17.7997L122.974 16.3221L122.894 17.824L128.095 18.9685L120.101 42.9724Z" fill="#C7A008"/>
<path d="M109.869 13.5736L109.926 15.0056L116.781 16.3711L119.421 28.7838L120.489 27.7161L117.975 15.1756L109.869 13.5736Z" fill="#C7A008"/>
<path d="M115.145 27.7185L113.258 38.3042L114.345 38.6535L116.218 26.6761L115.145 27.7185Z" fill="#C7A008"/>
<path d="M26.1802 42.1884L22.9736 30.6598L21.7999 31.4739L24.7718 42.5187L26.1802 42.1884Z" fill="#C7A008"/>
<path d="M25.3479 24.8525C24.6082 25.6307 22.9687 27.1429 22.0345 27.7394L21.4673 25.9333L20.225 21.9734L19.4354 19.2925L18.6648 20.2732L19.4515 22.958L20.6938 26.915L21.2586 28.7264C22.5376 27.9094 24.3981 26.3758 25.3479 24.8525Z" fill="#C7A008"/>
<path d="M70.7827 18.0358C69.7706 17.6496 68.3373 17.7657 67.5634 18.6056C67.3836 18.8004 67.0338 19.2973 66.9231 19.5193C67.6721 18.9286 69.006 18.8009 69.8804 19.1137L70.7827 18.0358Z" fill="#7D7F68"/>
<path d="M24.4226 21.613C24.3089 21.0204 23.7235 20.5496 23.4365 20.419C22.9231 20.1732 22.035 20.1348 21.3865 20.2519C21.503 20.6512 21.6368 21.1194 21.6936 21.3113C21.9566 21.3478 22.3887 21.4255 22.6155 21.528C22.9001 21.664 23.3978 21.9846 23.5134 22.5811C23.6682 23.3773 23.6275 24.1214 23.293 24.7257C24.2105 23.8329 24.6557 22.8619 24.4226 21.613Z" fill="#7D7F68"/>
<path d="M26.0293 21.5964C25.5889 19.2531 22.4989 17.9615 19.4354 19.6184L20.225 22.3003L21.4673 26.2636L22.034 28.0687C24.3324 26.6032 26.6426 24.8423 26.0293 21.5964ZM22.9863 25.1998C22.6517 24.1171 21.9179 21.7791 21.9179 21.7791C21.9214 21.7898 21.7734 21.2788 21.5981 20.6939C22.2476 20.5788 22.8717 20.6254 23.3851 20.8702C23.6721 21.0058 24.1767 21.322 24.2869 21.9214C24.5406 23.2689 24.0826 24.2307 22.9863 25.1998Z" fill="#3C5AA6"/>
<path d="M72.3865 17.8784C70.6739 16.3206 68.0121 16.4415 66.4499 18.1383C64.8785 19.8322 65.0019 22.4732 66.7169 24.0248C66.8565 24.1584 67.0074 24.2676 67.1592 24.375L72.6833 18.1713C72.5858 18.0703 72.4879 17.9698 72.3865 17.8784ZM67.1705 22.242C66.6302 21.2584 66.7394 20.0095 67.5472 19.1341C68.3241 18.2947 69.5144 18.0557 70.5294 18.4439L67.1705 22.242Z" fill="#3567B0"/>
<path d="M79.7675 17.1974L76.7084 20.1202L79.6147 22.7083L79.7675 17.1974Z" fill="#1E2D5F"/>
<path d="M108.134 23.4598C108.18 23.6439 108.204 23.8261 108.199 24.0199C108.148 25.1789 107.049 26.0737 105.739 26.013C104.43 25.9683 103.402 24.9832 103.453 23.8271C103.497 22.7433 104.471 21.8855 105.674 21.8306C105.446 21.7796 105.207 21.7529 104.958 21.7441C102.767 21.6504 100.976 23.1893 100.901 25.1051C100.816 27.154 102.473 28.8246 104.629 28.9174C106.823 29.0043 108.613 27.4601 108.7 25.4208C108.726 24.7141 108.515 24.0364 108.134 23.4598Z" fill="#3466AF"/>
<path d="M41.6634 25.7997C41.6634 26.9636 40.596 27.8963 39.2886 27.8963C37.9778 27.8963 36.9143 26.9631 36.9143 25.7997C36.9143 24.715 37.8499 23.8207 39.0491 23.7168C38.8193 23.6755 38.5803 23.6517 38.3334 23.6517C36.1428 23.6517 34.4146 25.263 34.4146 27.1817C34.4146 29.2292 36.1433 30.8351 38.2981 30.8351C40.4907 30.8351 42.2174 29.2282 42.2174 27.1817C42.2174 26.473 41.9813 25.8051 41.5752 25.2552C41.6301 25.4208 41.6634 25.6045 41.6634 25.7997Z" fill="url(#paint7_linear_39_2093)"/>
<path d="M121.762 14.0443L120.789 18.0203L119.891 13.6178L107.861 10.9918L107.945 17.6254L109.758 18.0285L109.627 19.225C109.603 19.2157 109.589 19.2017 109.576 19.1915C107.329 18.0154 104.542 17.895 101.92 18.8772C101.04 19.2109 100.224 19.6495 99.4831 20.1829L97.6682 8.82191H89.6675L89.447 10.1281H81.026L80.0644 15.9684L79.3659 15.113C77.3251 12.6269 74.3669 11.2575 71.0898 11.1895L78.2397 7.37871L73.254 0.000488281L64.2461 10.2933L65.8009 12.1732C64.3926 12.7439 63.162 13.5309 62.1427 14.4815L54.4192 7.6862L51.7186 12.8188L51.8224 7.88633L39.7471 11.7117L40.0567 18.1451L42.1111 17.6166L42.4148 20.877C40.0675 19.8317 37.2459 19.8574 34.6291 20.9538C33.8537 21.289 33.1307 21.7009 32.4645 22.1799C32.9171 20.1936 32.8098 18.2355 32.0466 16.4892C31.1453 14.4257 29.5592 12.7201 27.6144 11.6442C26.2512 10.7436 24.6263 10.1825 22.9261 9.99162C18.7476 9.26735 13.7301 10.0111 8.79187 12.0974C6.97647 12.8654 5.28305 13.7368 3.7557 14.7016L1.82519 15.9155L2.99104 17.8678L6.60909 23.9315C6.60909 23.9315 7.71615 25.7895 7.7235 25.7886L9.67997 24.835L9.95282 24.7107L18.9431 44.6079L19.8101 46.5204L21.8175 45.8792L26.6818 44.334L28.8136 43.6622L28.2512 41.5102L25.6678 31.676C26.4109 31.1305 27.1045 30.5519 27.7447 29.9462C27.6002 31.1213 27.6762 32.3109 28.0024 33.4495C28.6779 35.8336 30.2523 37.7169 32.437 38.7603C34.7967 39.8849 37.6755 39.8878 40.3388 38.7676C41.6747 38.2056 42.8626 37.3856 43.8692 36.4097L44.2361 40.3264L52.7546 39.0824L52.7414 31.5079L70.5412 40.2317V31.7848C71.2554 31.7256 71.9843 31.6138 72.7171 31.4356C74.6775 30.9658 76.3552 30.3217 77.8458 29.4362L77.0983 33.9727L86.6955 35.4703L87.2221 32.0457L89.7287 36.6376L91.2609 33.7099L91.8208 38.517L102.702 40.4192L102.125 36.7891C103.615 36.9562 105.185 36.758 106.701 36.1907C107.06 36.059 107.415 35.8987 107.754 35.7268L107.321 39.5891L114.563 40.6024L114.617 43.5475L122.168 45.8981L132 16.512L121.762 14.0443ZM79.2463 18.4113L79.7455 17.8852L79.1425 21.5901L77.5696 20.1853L79.2463 18.4113ZM72.8694 3.27695L75.5058 6.82835L67.9685 10.5337L67.4478 9.74923L72.8694 3.27695ZM22.9589 30.6627L25.9661 42.1048L21.0989 43.6466L11.1113 21.528C10.5681 21.8112 9.56485 22.2862 8.64344 22.7341L5.02686 16.6757C6.46507 15.7649 8.04239 14.9576 9.72014 14.2547C14.4286 12.2689 18.921 11.6762 22.5141 12.3058C23.7853 12.4476 25.1309 12.8192 26.3095 13.595C27.9265 14.498 29.1634 15.7834 29.8766 17.4204C31.616 21.4065 28.7102 27.1429 22.9589 30.6627ZM45.3358 28.6264C45.28 30.33 44.6491 32.0369 43.5929 33.4811C42.5882 34.8777 41.1848 36.0304 39.5335 36.7352C35.311 38.5092 31.0885 36.7352 29.9603 32.7597C28.8675 28.9159 31.4103 24.34 35.5016 22.5923C38.1144 21.4983 40.7361 21.7577 42.6142 23.0231C43.7742 23.8033 44.6588 24.9764 45.0718 26.4463C45.1237 26.6022 45.158 26.7659 45.1928 26.9262C45.3108 27.4863 45.3584 28.0605 45.3358 28.6264ZM68.3104 36.7158L50.6488 27.956L50.6801 37.134L46.1113 37.7519L45.7929 33.9688C47.2036 31.5701 47.7194 28.7435 46.9832 26.1514C46.5791 24.7267 45.8325 23.49 44.8181 22.499L44.1626 14.7856L42.1111 15.3131L42.0205 13.3628L49.3575 11.1963L49.8072 18.7003L55.2122 11.1696L60.4963 16.1598L53.1068 23.8795L60.049 26.6027C60.8245 28.06 62.0075 29.2982 63.4917 30.2105C64.9265 31.0887 66.5704 31.608 68.3094 31.7785L68.3104 36.7158ZM59.1399 24.0248L56.6833 23.0848L58.9733 20.8775C58.8753 21.8908 58.9258 22.9503 59.1399 24.0248ZM78.3602 26.3195C76.6653 27.7098 74.7333 28.6162 72.1807 29.2278C71.6228 29.3545 71.0761 29.4468 70.5412 29.4935C66.4896 29.8884 63.0905 28.0435 61.8007 25.0512C61.6401 24.6888 61.5161 24.3221 61.4226 23.9305C60.8259 21.4104 61.3354 19.1579 62.5909 17.3932C62.9524 16.8783 63.3815 16.409 63.8635 15.9864C65.046 14.9401 66.5557 14.1794 68.2722 13.7704C72.1317 12.8474 75.5308 14.0157 77.6146 16.5513L70.26 24.3143C70.7587 24.4076 71.5517 24.2779 72.1371 24.1389C73.8888 23.7153 74.869 22.7934 75.7326 21.7888L78.6717 24.411L79.5623 25.2086C79.1763 25.6045 78.7707 25.978 78.3602 26.3195ZM93.9635 36.6793L92.3636 26.1699L90.101 31.9675L86.7132 24.7214H86.6749L85.3362 33.1129L79.6897 32.1384L80.4837 27.4557C80.6968 27.257 80.9064 27.0579 81.1127 26.8475L82.9428 24.9788L81.1641 23.3991L83.054 12.2475H88.7509L90.1769 19.9672L91.7748 11.021H95.8499L97.5409 21.9205C95.3889 24.3512 94.3436 27.6189 95.0627 30.6083C95.6187 32.9259 97.0549 34.7922 99.1138 35.8822C99.321 35.9857 99.5355 36.0882 99.757 36.1766L99.9725 37.5897L93.9635 36.6793ZM108.034 33.2552C107.412 33.6948 106.727 34.0684 105.99 34.338C104.535 34.8874 103.089 35.0015 101.8 34.7475C100.902 34.5716 100.083 34.2243 99.37 33.7215C98.2364 32.9084 97.4017 31.7076 97.0339 30.1998C96.6047 28.3884 97.0001 26.4541 97.9827 24.7597C98.4725 23.9315 99.101 23.1533 99.8446 22.4825C100.674 21.7451 101.636 21.1413 102.705 20.7333C105.195 19.8123 107.651 20.1299 109.38 21.3623C110.015 21.8092 110.543 22.378 110.959 23.0392C111.274 23.5614 111.519 24.137 111.668 24.7656C112.197 26.9408 111.567 29.2705 110.183 31.1475C109.59 31.9475 108.868 32.6665 108.034 33.2552ZM120.749 43.1609L116.573 41.9275L116.209 26.662L114.109 38.4383L109.554 37.7174L109.88 34.3268C112.855 31.8344 114.431 27.9026 113.567 24.3396C113.188 22.7618 112.37 21.3881 111.217 20.3437L111.601 16.3449L109.879 15.8902L109.994 13.7553L117.842 15.3195L120.481 27.7287L123.187 16.6033L129.157 17.9115L120.749 43.1609Z" fill="url(#paint8_linear_39_2093)"/>
<path d="M124.18 44.6076V43.4552H123.746V43.301H124.79V43.4552H124.354V44.6076H124.18Z" fill="black"/>
<path d="M124.964 44.6076V43.301H125.227L125.539 44.2261C125.568 44.3123 125.589 44.3768 125.602 44.4195C125.617 44.372 125.64 44.3022 125.672 44.2101L125.987 43.301H126.222V44.6076H126.054V43.514L125.671 44.6076H125.514L125.133 43.4953V44.6076H124.964Z" fill="black"/>
</g>
<defs>
<linearGradient id="paint0_linear_39_2093" x1="6.51504" y1="25.9999" x2="1.67165" y2="16.8975" gradientUnits="userSpaceOnUse">
<stop stop-color="#0070B6"/>
<stop offset="1" stop-color="#1D2C5E"/>
</linearGradient>
<linearGradient id="paint1_linear_39_2093" x1="66.3631" y1="7.47449" x2="72.5359" y2="0.804854" gradientUnits="userSpaceOnUse">
<stop stop-color="#0070B6"/>
<stop offset="1" stop-color="#1D2C5E"/>
</linearGradient>
<linearGradient id="paint2_linear_39_2093" x1="39.1892" y1="18.5075" x2="38.4586" y2="12.3183" gradientUnits="userSpaceOnUse">
<stop stop-color="#0070B6"/>
<stop offset="1" stop-color="#1D2C5E"/>
</linearGradient>
<linearGradient id="paint3_linear_39_2093" x1="107.227" y1="17.3164" x2="106.935" y2="11.7309" gradientUnits="userSpaceOnUse">
<stop stop-color="#125D9E"/>
<stop offset="1" stop-color="#1D2C5E"/>
</linearGradient>
<linearGradient id="paint4_linear_39_2093" x1="86.4394" y1="9.26574" x2="79.9814" y2="19.6263" gradientUnits="userSpaceOnUse">
<stop stop-color="#125D9E"/>
<stop offset="1" stop-color="#1D2C5E"/>
</linearGradient>
<linearGradient id="paint5_linear_39_2093" x1="28.5928" y1="25.8054" x2="32.9904" y2="34.5269" gradientUnits="userSpaceOnUse">
<stop stop-color="#105FA1"/>
<stop offset="1" stop-color="#1D2C5E"/>
</linearGradient>
<linearGradient id="paint6_linear_39_2093" x1="11.7766" y1="22.8386" x2="16.862" y2="34.7268" gradientUnits="userSpaceOnUse">
<stop stop-color="#105FA1"/>
<stop offset="1" stop-color="#1D2C5E"/>
</linearGradient>
<linearGradient id="paint7_linear_39_2093" x1="34.4146" y1="27.2432" x2="42.2173" y2="27.2432" gradientUnits="userSpaceOnUse">
<stop stop-color="#3C5AA6"/>
<stop offset="0.9331" stop-color="#2B73B9"/>
<stop offset="1" stop-color="#2A75BB"/>
</linearGradient>
<linearGradient id="paint8_linear_39_2093" x1="1.82552" y1="23.2603" x2="132" y2="23.2603" gradientUnits="userSpaceOnUse">
<stop stop-color="#3C5AA6"/>
<stop offset="0.9331" stop-color="#2B73B9"/>
<stop offset="1" stop-color="#2A75BB"/>
</linearGradient>
<clipPath id="clip0_39_2093">
<rect width="132" height="48" fill="white"/>
</clipPath>
</defs>
</svg>
